<svg width="112" height="85" viewBox="0 0 112 85" fill="none" xmlns="http://www.w3.org/2000/svg">
<path d="M107.775 34.5682C103.543 24.3475 96.3494 15.5915 87.1378 9.43952C77.9261 3.28756 67.0869 0 56.0199 0C44.9529 0 34.1137 3.28756 24.902 9.43952C15.6903 15.5915 8.49678 24.3475 4.26527 34.5682C0.0012087 44.8215 -1.07294 56.0838 1.07536 66.923C1.59616 69.5921 2.31226 72.1961 3.22367 74.735C7.81323 87.6899 24.2836 87.7225 34.016 78.0225L35.1553 76.8833V20.3112H59.1121C63.7017 20.3112 67.6077 21.125 70.8627 22.7525C74.1177 24.38 76.5915 26.6911 78.3167 29.6531C80.0418 32.6152 80.8881 36.1306 80.8881 40.1342C80.8881 44.1379 80.0093 47.6208 78.2841 50.5177C76.559 53.4147 74.0201 55.6281 70.7325 57.1579C70.5372 57.2556 70.3419 57.2881 70.1466 57.3858L83.0365 81.0171H81.7345C91.4669 87.4946 104.747 86.1275 108.784 74.7024C109.695 72.1635 110.411 69.5595 110.932 66.8904C113.08 56.0187 111.973 44.7564 107.742 34.5356L107.775 34.5682Z" fill="#336DFF"/>
<path d="M70.1465 57.4183C70.3418 57.3532 70.5371 57.2881 70.7324 57.1904C74.02 55.6606 76.5264 53.4146 78.2841 50.5502C80.0418 47.6858 80.8881 44.203 80.8881 40.1667C80.8881 36.1305 80.0418 32.6477 78.3166 29.6856C76.5915 26.7236 74.1177 24.4125 70.8626 22.785C67.6076 21.1575 63.7016 20.3438 59.1121 20.3438H35.1552V81.0496H48.0125V59.5015H57.3869L68.8771 81.0496H83.0364L70.1465 57.4183ZM66.4684 45.1469C65.6546 46.4815 64.4503 47.4905 62.8228 48.1741C61.1953 48.8576 59.1772 49.1831 56.7034 49.1831H47.9799V30.7923H56.6383C59.1121 30.7923 61.1627 31.1504 62.7902 31.8665C64.4177 32.5826 65.6221 33.6567 66.4358 35.0238C67.2496 36.4235 67.6402 38.1161 67.6402 40.1342C67.6402 42.1523 67.2496 43.8124 66.4358 45.1469H66.4684Z" fill="#EFEFEF"/>
</svg>
