<svg width="537" height="537" viewBox="0 0 537 537" fill="none" xmlns="http://www.w3.org/2000/svg">
    <path
        d="M156.815 121.725C159.44 124.929 158.97 129.655 155.766 132.28C152.562 134.905 147.836 134.435 145.211 131.231C142.586 128.026 143.056 123.301 146.26 120.676C149.465 118.051 154.19 118.521 156.815 121.725Z"
        fill="#274FB2" />
    <path
        d="M389.242 407.037C391.866 410.241 391.397 414.967 388.193 417.591C384.988 420.216 380.263 419.747 377.638 416.542C375.013 413.338 375.483 408.613 378.687 405.988C381.891 403.363 386.617 403.833 389.242 407.037Z"
        fill="#274FB2" />
    <circle cx="267.683" cy="268.113" r="183" transform="rotate(-39.3234 267.683 268.113)" stroke="#274FB2"
        strokeOpacity="0.7" stroke-width="2" />
    <circle cx="268" cy="268" r="254" stroke="#274FB2" strokeOpacity="0.9" stroke-width="2" />
    <path
        d="M520.634 279.082C514.761 277.528 511.26 271.507 512.815 265.634C514.369 259.761 520.39 256.26 526.263 257.815C532.136 259.369 535.637 265.39 534.082 271.263C532.528 277.136 526.507 280.637 520.634 279.082Z"
        fill="#274FB2" />
    <path
        d="M10.6338 279.082C4.76093 277.528 1.26011 271.507 2.81453 265.634C4.36895 259.761 10.39 256.26 16.2629 257.815C22.1358 259.369 25.6366 265.39 24.0822 271.263C22.5278 277.136 16.5067 280.637 10.6338 279.082Z"
        fill="#274FB2" />
    <path
        d="M279.082 16.2629C277.528 22.1358 271.507 25.6366 265.634 24.0822C259.761 22.5278 256.26 16.5067 257.815 10.6338C259.369 4.76093 265.39 1.26011 271.263 2.81453C277.136 4.36895 280.637 10.39 279.082 16.2629Z"
        fill="#274FB2" />
    <path
        d="M279.082 526.263C277.528 532.136 271.507 535.637 265.634 534.082C259.761 532.528 256.26 526.507 257.815 520.634C259.369 514.761 265.39 511.26 271.263 512.815C277.136 514.369 280.637 520.39 279.082 526.263Z"
        fill="#274FB2" />
</svg>