<svg width="49" height="53" viewBox="0 0 49 53" fill="none" xmlns="http://www.w3.org/2000/svg">
<g clip-path="url(#clip0_123_167)">
<path d="M29.7734 14.808H24.3634L16.5414 34.8722H21.4517L22.701 31.4513H30.1289L28.7741 27.7421H23.9117L27.0732 19.1226L32.733 34.9203H37.653L29.7734 14.808Z" fill="#868282"/>
<path d="M46.532 40.9645C46.1284 40.9645 45.8306 41.1663 45.6288 41.4064C45.6288 41.4064 44.6294 42.4923 44.1297 43.0401C41.9196 45.2213 39.3155 46.9511 36.4519 48.1906C33.4441 49.4302 30.2828 50.074 27.0252 50.074C23.7675 50.074 20.5581 49.4302 17.5984 48.1906C14.7444 46.999 12.1307 45.2694 9.92057 43.0401C7.71045 40.8588 5.95194 38.2834 4.70274 35.4583C3.45353 32.4794 2.80009 29.366 2.80009 26.1468C2.80009 22.9278 3.45353 19.7567 4.70274 16.8355C5.9039 14.0104 7.66241 11.4351 9.87255 9.25375C12.0827 7.07245 14.6868 5.34277 17.5503 4.10317C20.5581 2.86357 23.7196 2.21975 26.9771 2.21975C30.2347 2.21975 33.4441 2.86357 36.4038 4.10317C38.5082 4.99683 40.4205 6.13073 42.2271 7.52408C42.131 7.77392 42.0734 8.11985 42.0734 8.41775C42.0734 9.90718 43.2745 11.1468 44.8311 11.1468C46.3878 11.1468 47.589 9.95524 47.589 8.41775C47.589 6.88026 46.3878 5.6887 44.8311 5.6887C44.4276 5.6887 44.072 5.73675 43.7837 5.8905C39.2194 2.21975 33.3961 0 26.9867 0C12.3902 0 0.551514 11.6945 0.551514 26.1565C0.551514 40.6185 12.3902 52.313 27.0347 52.313C35.2123 52.313 42.5345 48.6423 47.3969 42.9055C47.5987 42.7037 47.7523 42.4155 47.7523 42.108C47.7044 41.4641 47.147 40.9741 46.5513 40.9741L46.532 40.9645Z" fill="#868282"/>
</g>
<defs>
<clipPath id="clip0_123_167">
<rect width="47.4788" height="52.4766" fill="white" transform="translate(0.551514)"/>
</clipPath>
</defs>
</svg>
