<svg width="91" height="33" viewBox="0 0 91 33" fill="none" xmlns="http://www.w3.org/2000/svg">
<g clip-path="url(#clip0_123_157)">
<path d="M22.5659 2.26178C21.2556 0.259306 20.9425 -0.00439453 18.2642 -0.00439453H18.1983C15.5284 -0.00439453 15.2316 0.259306 13.8967 2.26178C12.6606 4.14065 0.406738 26.5799 0.406738 27.2062C0.406738 28.1127 0.637474 28.9697 1.48626 30.1893C2.34329 31.4255 3.8266 32.1094 4.90612 31.0216C5.63954 30.2882 13.5011 16.7406 17.3001 11.6149C17.7533 10.9721 18.6927 10.9721 19.1625 11.6149C22.9614 16.7406 30.8229 30.2882 31.5563 31.0216C32.6359 32.1177 34.1192 31.4255 34.9762 30.1893C35.8168 28.9697 36.0557 28.1127 36.0557 27.2062C36.0392 26.5799 23.7854 4.12416 22.5494 2.26178H22.5659Z" fill="#868282"/>
<path d="M40.4477 6.90125H50.2293V9.33222H43.3237V13.4772H49.1581V15.9165H43.3237V20.7126H50.4684V23.1435H40.4395V6.90948L40.4477 6.90125Z" fill="#868282"/>
<path d="M55.6766 16.7654L52.3226 11.376L55.4293 10.9557C55.4293 10.9557 57.4978 15.043 57.6543 15.3233L60.0936 10.9557H63.0437L59.7228 16.7736C59.6321 16.9302 59.6403 17.128 59.731 17.2763L63.3239 22.8057L60.176 23.1437L57.6626 18.5783C57.473 18.9244 55.0585 23.1437 55.0585 23.1437H51.8364L55.6683 17.2928C55.7672 17.1362 55.7754 16.9302 55.6766 16.7736V16.7654Z" fill="#868282"/>
<path d="M67.8481 24.1242V27.5275L64.9968 27.9479V10.9392H67.3537L67.5597 12.233H67.6585C68.1694 11.8045 68.738 11.4336 69.3726 11.1205C70.0071 10.8073 70.6581 10.6508 71.3339 10.6508C72.092 10.6508 72.7677 10.7909 73.3611 11.0793C73.9543 11.3677 74.4489 11.788 74.8608 12.3401C75.2729 12.8922 75.586 13.535 75.8085 14.3013C76.0228 15.0595 76.1299 15.9165 76.1299 16.8559C76.1299 17.9026 75.9898 18.8337 75.7014 19.6496C75.4129 20.4653 75.0256 21.1494 74.5477 21.7098C74.0698 22.27 73.5094 22.6903 72.8831 22.9871C72.2486 23.2837 71.5975 23.432 70.9218 23.432C70.3862 23.432 69.867 23.3167 69.3314 23.0859C68.7958 22.8551 68.2849 22.5173 67.7986 22.0887L67.8563 24.1324L67.8481 24.1242ZM67.8481 20.0534C68.2931 20.4325 68.7298 20.7043 69.1419 20.8444C69.5539 20.9928 69.9411 21.0669 70.3037 21.0669C71.1114 21.0669 71.7871 20.7126 72.3392 20.0121C72.8913 19.3117 73.1551 18.2652 73.1551 16.8724C73.1551 15.6528 72.9408 14.6969 72.5287 14.0212C72.1168 13.3455 71.4492 12.9994 70.518 12.9994C69.661 12.9994 68.7628 13.4526 67.8316 14.3673V20.0534H67.8398H67.8481Z" fill="#868282"/>
<path d="M77.8274 17.0538C77.8274 16.0402 77.9839 15.1502 78.2972 14.3426C78.6103 13.5516 79.0387 12.8758 79.5744 12.3319C80.1182 11.7798 80.7281 11.3678 81.4203 11.0711C82.1125 10.7827 82.8459 10.6426 83.6041 10.6426C84.3622 10.6426 85.0957 10.7827 85.7961 11.0711C86.4965 11.3595 87.1146 11.7798 87.642 12.3319C88.1777 12.884 88.598 13.5433 88.9193 14.3426C89.2407 15.142 89.3972 16.0402 89.3972 17.0538C89.3972 18.0674 89.2407 18.9574 88.9193 19.7649C88.598 20.5561 88.1694 21.2318 87.642 21.7757C87.1064 22.3278 86.4965 22.7399 85.7961 23.02C85.0957 23.3002 84.3622 23.4403 83.6041 23.4403C82.8459 23.4403 82.1207 23.3002 81.4203 23.02C80.7199 22.7399 80.11 22.3278 79.5744 21.7757C79.0387 21.2235 78.6103 20.5643 78.2972 19.7649C77.9839 18.9657 77.8274 18.0674 77.8274 17.0538ZM80.7528 17.0538C80.7528 18.2735 81.0083 19.254 81.511 19.9957C82.0137 20.7291 82.7141 21.1 83.6123 21.1C84.5105 21.1 85.211 20.7291 85.7219 19.9957C86.2329 19.2623 86.4883 18.2817 86.4883 17.0538C86.4883 15.8259 86.2329 14.8289 85.7219 14.0955C85.211 13.362 84.5105 12.9912 83.6123 12.9912C82.7141 12.9912 82.0137 13.362 81.511 14.0955C81.0083 14.8289 80.7528 15.8177 80.7528 17.0538Z" fill="#868282"/>
</g>
<defs>
<clipPath id="clip0_123_157">
<rect width="89.9599" height="32.4855" fill="white" transform="translate(0.406738 -0.00439453)"/>
</clipPath>
</defs>
</svg>
