<svg width="102" height="31" viewBox="0 0 102 31" fill="none" xmlns="http://www.w3.org/2000/svg">
<g clip-path="url(#clip0_123_195)">
<path d="M0.669399 23.6207V12.1106H14.7268V11.4322H0.669399V0.923456H15.6054V0.245117H0V24.2883H15.7309V23.6099H0.669399V23.6207ZM28.4181 6.99614L22.5923 14.8346L16.9023 6.99614H16.0447L22.2052 15.3515L15.459 24.299H16.2539L22.6027 15.8468L28.9933 24.299H29.8197L23.0315 15.3515L29.213 6.99614H28.4076H28.4181ZM31.7756 30.2317V19.4538H31.8383C32.2357 21.015 33.0098 22.2855 34.1708 23.2439C35.3317 24.1913 36.8065 24.6758 38.6055 24.6758C39.7665 24.6758 40.8021 24.439 41.7015 23.9544C42.6115 23.47 43.3437 22.8239 43.9608 21.984C44.5569 21.1442 45.0172 20.186 45.3414 19.0877C45.6551 17.9895 45.8121 16.8266 45.8121 15.6206C45.8121 14.3178 45.6446 13.1119 45.31 12.0137C44.9753 10.9154 44.5047 9.96788 43.8771 9.16035C43.2495 8.35281 42.4964 7.72832 41.6073 7.27609C40.7183 6.83464 39.7247 6.59777 38.595 6.59777C37.7374 6.59777 36.9529 6.72698 36.2104 6.98539C35.4677 7.2438 34.8192 7.60987 34.244 8.08363C33.6687 8.55739 33.1771 9.11729 32.7693 9.75255C32.3508 10.3878 32.0266 11.0984 31.8174 11.8521H31.7546V6.99614H31.0958V30.2317H31.7756ZM38.6264 24.0299C36.5554 24.0299 34.9029 23.3085 33.6477 21.8656C32.3927 20.4121 31.7756 18.3341 31.7756 15.6099C31.7756 14.4901 31.9325 13.4134 32.2357 12.412C32.5391 11.4107 32.9889 10.517 33.5642 9.75255C34.1499 8.99884 34.8611 8.38513 35.7187 7.94367C36.5764 7.50222 37.5386 7.26532 38.616 7.26532C39.6933 7.26532 40.666 7.49145 41.5027 7.94367C42.3291 8.38513 43.0089 8.99884 43.5423 9.78485C44.0757 10.5709 44.4837 11.443 44.7557 12.4443C45.0275 13.4457 45.1636 14.5116 45.1636 15.6314C45.1636 16.6328 45.038 17.6449 44.7765 18.6463C44.5255 19.6476 44.1386 20.5413 43.6051 21.3381C43.0822 22.1349 42.4023 22.7916 41.576 23.2977C40.7497 23.8037 39.7665 24.0514 38.595 24.0514H38.6369L38.6264 24.0299ZM49.4519 24.2883V14.4901C49.4519 13.5534 49.5774 12.6274 49.8494 11.7229C50.1213 10.8185 50.5084 10.0433 51.0626 9.34341C51.6065 8.66508 52.3178 8.11595 53.1545 7.72833C53.9913 7.3407 55.0058 7.16842 56.1668 7.2438V6.56547C55.1628 6.54393 54.2842 6.6516 53.5101 6.91001C52.7571 7.15766 52.0981 7.50222 51.5438 7.91136C50.9999 8.34206 50.5606 8.83735 50.2259 9.40801C49.8913 9.97867 49.6506 10.5924 49.4937 11.2492H49.431V6.96385H48.772V24.2668H49.4519V24.2883ZM56.9931 15.7822H71.1342C71.176 14.5978 71.0609 13.4457 70.7891 12.3474C70.5171 11.2492 70.0778 10.2694 69.4711 9.41876C68.8749 8.56816 68.0905 7.87906 67.1387 7.373C66.1869 6.86695 65.0469 6.59777 63.729 6.59777C62.7876 6.59777 61.8672 6.79157 60.9572 7.20073C60.0472 7.60988 59.2732 8.19131 58.5829 8.96655C57.8926 9.74178 57.3592 10.6893 56.9409 11.8091C56.5224 12.9288 56.3133 14.2101 56.3133 15.6423C56.3133 16.9236 56.4492 18.1186 56.7421 19.2277C57.0349 20.3367 57.4742 21.3057 58.06 22.1241C58.6457 22.9424 59.4093 23.5776 60.3401 24.0299C61.2709 24.4713 62.3902 24.6975 63.708 24.6651C65.6325 24.6651 67.2643 24.1052 68.582 22.9962C69.8999 21.8872 70.674 20.3259 70.9145 18.3017H70.2555C69.9732 20.2075 69.2306 21.6396 68.0592 22.5978C66.8877 23.5454 65.4025 24.0299 63.6347 24.0299C62.4215 24.0299 61.407 23.8252 60.5702 23.3945C59.7439 22.9639 59.0537 22.3932 58.5307 21.6503C58.0076 20.9074 57.6102 20.046 57.3592 19.0446C57.1082 18.0433 56.9617 16.9558 56.9512 15.7929H56.9722L56.9931 15.7822ZM70.4857 15.0931H56.9931C57.0558 13.8764 57.2755 12.7996 57.652 11.8306C58.0181 10.8616 58.5202 10.0433 59.1164 9.35417C59.7125 8.67583 60.4133 8.14824 61.2187 7.79293C62.0241 7.42684 62.8817 7.25457 63.8127 7.25457C64.9108 7.25457 65.8836 7.45915 66.7099 7.87906C67.5361 8.29899 68.2369 8.85886 68.8017 9.58027C69.3666 10.3017 69.7849 11.1308 70.0673 12.089C70.3498 13.0473 70.4962 14.0487 70.4962 15.1039H70.4857V15.0931ZM84.7941 12.089H85.453C85.453 10.1617 84.9091 8.76197 83.8109 7.86829C82.7127 6.99614 81.217 6.55469 79.3344 6.55469C78.278 6.55469 77.3994 6.68391 76.6672 6.96385C75.935 7.23303 75.3493 7.57759 74.8891 8.00827C74.4289 8.43895 74.0942 8.91271 73.9059 9.41876C73.7176 9.92483 73.613 10.4201 73.613 10.9046C73.613 11.8414 73.7803 12.6059 74.1151 13.1657C74.4498 13.7256 74.9518 14.167 75.6631 14.4794C76.1442 14.7054 76.6985 14.9101 77.3052 15.0823C77.9222 15.2653 78.6336 15.4485 79.4493 15.653C80.1815 15.836 80.8928 16.0191 81.5935 16.1914C82.2943 16.3744 82.9219 16.6113 83.4553 16.9127C83.9888 17.2142 84.4385 17.6019 84.7732 18.0755C85.1183 18.5493 85.2857 19.1631 85.2857 19.9276C85.2857 20.692 85.1183 21.295 84.7732 21.8118C84.4385 22.3179 83.9992 22.7486 83.4763 23.0823C82.9533 23.4053 82.3675 23.6422 81.7191 23.7822C81.0706 23.9222 80.443 24.0083 79.8364 24.0083C77.8387 24.0083 76.3011 23.5561 75.2447 22.6516C74.1883 21.7364 73.6549 20.3152 73.6549 18.3555H72.9959C72.9959 20.5304 73.5712 22.1241 74.7217 23.1362C75.8723 24.1483 77.5772 24.6544 79.8364 24.6544C80.5686 24.6544 81.2903 24.579 82.0328 24.4067C82.7755 24.2344 83.4239 23.9653 84.0097 23.5883C84.5849 23.2115 85.0661 22.7055 85.4217 22.1025C85.7772 21.4995 85.9655 20.7566 85.9655 19.8845C85.9655 19.0124 85.8087 18.3878 85.4949 17.8603C85.1811 17.3434 84.7523 16.9234 84.2398 16.579C83.7273 16.2344 83.1415 15.976 82.4931 15.7822C81.8446 15.5884 81.196 15.4054 80.5267 15.2223C79.7213 14.9962 78.9159 14.7916 78.1 14.587C77.4097 14.4039 76.7718 14.1994 76.1755 13.9518C75.6003 13.7041 75.1506 13.3488 74.8159 12.8966C74.4707 12.4443 74.3034 11.7768 74.3034 10.9262C74.3034 10.7647 74.3452 10.4847 74.4289 10.0756C74.523 9.66642 74.7218 9.26803 75.0564 8.84811C75.3911 8.42819 75.8828 8.06211 76.5731 7.73909C77.2529 7.41607 78.1838 7.25457 79.3657 7.25457C80.1815 7.25457 80.9242 7.3407 81.5831 7.52375C82.2421 7.70679 82.8382 7.99751 83.3089 8.38513C83.79 8.77274 84.1666 9.26803 84.428 9.88177C84.7 10.4847 84.8255 11.2277 84.8255 12.0998H84.8151L84.7941 12.089ZM100.033 12.0998H100.692C100.692 10.1725 100.148 8.77274 99.0502 7.87906C97.9519 6.99616 96.4562 6.56547 94.5736 6.56547C93.5172 6.56547 92.6387 6.69467 91.9065 6.97462C91.1743 7.2438 90.5886 7.58834 90.1284 8.01903C89.6681 8.44972 89.3335 8.92347 89.1452 9.42953C88.957 9.93558 88.8524 10.4309 88.8524 10.9154C88.8524 11.8522 89.0197 12.6166 89.3544 13.1765C89.6891 13.7365 90.1912 14.1779 90.9023 14.4901C91.3835 14.7163 91.9379 14.9208 92.5445 15.0931C93.1616 15.2762 93.8729 15.4592 94.6886 15.6637C95.4208 15.8468 96.132 16.0298 96.8328 16.2021C97.5336 16.3852 98.1612 16.6221 98.6946 16.9236C99.228 17.2249 99.6778 17.6126 100.013 18.0864C100.358 18.5601 100.525 19.1738 100.525 19.9383C100.525 20.7027 100.358 21.3057 100.013 21.8226C99.6778 22.3286 99.2385 22.7593 98.7155 23.0931C98.1926 23.4162 97.6068 23.6531 96.9584 23.793C96.3099 23.9329 95.6823 24.019 95.0757 24.019C93.078 24.019 91.5404 23.5668 90.484 22.6624C89.4276 21.7472 88.8942 20.3259 88.8942 18.3663H88.2353C88.2353 20.5413 88.8105 22.1349 89.961 23.1469C91.1116 24.1483 92.8165 24.6651 95.0757 24.6651C95.8078 24.6651 96.5295 24.5898 97.2721 24.4175C98.0148 24.2452 98.6633 23.976 99.249 23.5992C99.8242 23.2222 100.305 22.7162 100.661 22.1132C101.017 21.5104 101.205 20.7673 101.205 19.8952C101.205 19.0231 101.048 18.3986 100.734 17.871C100.42 17.3542 99.9915 16.9343 99.479 16.5897C98.9665 16.2451 98.3809 15.9867 97.7323 15.7929C97.0838 15.5991 96.4354 15.4161 95.766 15.2331C94.9607 15.0069 94.1553 14.8024 93.3394 14.5978C92.6491 14.4148 92.0006 14.2101 91.4149 13.9625C90.8396 13.7149 90.3898 13.3595 90.0552 12.9073C89.71 12.4551 89.5427 11.7876 89.5427 10.9369C89.5427 10.7754 89.5846 10.4955 89.6681 10.0863C89.7624 9.67717 89.961 9.27879 90.2957 8.85886C90.6305 8.43895 91.122 8.07287 91.8123 7.74985C92.4922 7.42684 93.4231 7.26532 94.6051 7.26532C95.4208 7.26532 96.1635 7.35146 96.8224 7.5345C97.4813 7.71755 98.0775 8.00827 98.5482 8.39588C99.0188 8.78351 99.4058 9.2788 99.6673 9.89253C99.9393 10.4955 100.065 11.2384 100.065 12.1106H100.054L100.033 12.0998Z" fill="#868282"/>
</g>
<defs>
<clipPath id="clip0_123_195">
<rect width="101.205" height="29.9866" fill="white" transform="translate(0 0.245117)"/>
</clipPath>
</defs>
</svg>
