<svg width="49" height="53" viewBox="0 0 49 53" fill="none" xmlns="http://www.w3.org/2000/svg">
<g clip-path="url(#clip0_123_164)">
<path d="M47.5717 39.3574C46.264 41.5953 43.3486 42.3594 41.0735 41.0731C40.6206 40.8169 40.227 40.4974 39.898 40.1339L28.9944 46.3262C29.1505 46.7891 29.2349 47.2849 29.2349 47.8001C29.2349 50.3729 27.1097 52.4766 24.4806 52.4766C21.8515 52.4766 19.7264 50.3862 19.7264 47.8001C19.7264 47.3401 19.7931 46.8967 19.919 46.4768L8.95187 40.2486C8.64576 40.5639 8.29071 40.8425 7.88775 41.0731C5.59916 42.3594 2.69728 41.5953 1.3895 39.3574C0.0817285 37.1196 0.858479 34.2651 3.13354 32.9653C3.53545 32.7379 3.95715 32.5751 4.38614 32.4726V20.007C3.95194 19.9046 3.52608 19.7407 3.12001 19.5113C0.844943 18.2249 0.0681933 15.357 1.37597 13.1191C2.68373 10.8812 5.59916 10.1172 7.87422 11.4036C8.28134 11.6361 8.63951 11.9188 8.94771 12.2383L19.9212 6.00701C19.7913 5.57508 19.7259 5.12695 19.7264 4.67656C19.7264 2.09042 21.8515 0 24.4806 0C27.1097 0 29.2349 2.09042 29.2349 4.67656C29.2349 5.14156 29.1662 5.59016 29.0381 6.01316L40.0083 12.2445C40.3176 11.9218 40.6778 11.6381 41.0871 11.4036C43.3621 10.1172 46.264 10.8812 47.5853 13.1191C48.8931 15.357 48.1163 18.2115 45.8412 19.5113C45.4352 19.7407 45.0093 19.9046 44.5752 20.007V32.4726C45.0041 32.5751 45.4258 32.7379 45.8277 32.9653C48.1163 34.2651 48.8931 37.1196 47.5717 39.3574ZM6.64766 32.4778C6.71117 32.4931 6.77261 32.5095 6.83508 32.528L21.1966 8.06056C21.1497 8.01651 21.105 7.97351 21.0603 7.92741L10.0681 14.1711C10.4096 15.3478 10.2857 16.6517 9.61827 17.7957C8.94875 18.9418 7.85756 19.7007 6.64766 19.9967V32.4778ZM8.79569 33.6362C9.11535 33.9362 9.39856 34.2856 9.6318 34.6809C9.86294 35.0762 10.0285 35.491 10.1326 35.914H38.8286C38.9328 35.491 39.0984 35.0762 39.3295 34.6809C39.5559 34.2933 39.8378 33.9397 40.1666 33.6311L25.8093 9.16876C25.3875 9.28962 24.9419 9.35312 24.4806 9.35312C24.0205 9.35312 23.5769 9.28962 23.1562 9.17081L8.79569 33.6362ZM42.1293 32.526C42.1907 32.5085 42.2511 32.4921 42.3135 32.4768V19.9967C41.1037 19.7007 40.0124 18.9418 39.343 17.7957C38.6767 16.6547 38.5517 15.3529 38.8922 14.1782L27.8959 7.93356C27.8541 7.97556 27.8115 8.01651 27.7678 8.05748L42.1293 32.526ZM38.9213 38.4449C38.8879 38.3435 38.8588 38.2411 38.8338 38.1386H10.1264C10.1118 38.1991 10.0951 38.2594 10.0774 38.3189L21.055 44.5543C21.9203 43.6714 23.1343 43.1235 24.4806 43.1235C25.8749 43.1235 27.1274 43.7114 27.9968 44.6496L38.9213 38.4449Z" fill="#868282"/>
</g>
<defs>
<clipPath id="clip0_123_164">
<rect width="47.4788" height="52.4766" fill="white" transform="translate(0.741211)"/>
</clipPath>
</defs>
</svg>
