<svg width="108" height="32" viewBox="0 0 108 32" fill="none" xmlns="http://www.w3.org/2000/svg">
<g clip-path="url(#clip0_123_172)">
<path d="M97.9687 11.4857C97.7129 11.4857 97.457 11.5426 97.2391 11.6658L90.2372 15.7115C89.7824 15.9768 89.5077 16.4695 89.5077 16.9906V25.0631C89.5077 25.5842 89.7824 26.0769 90.2372 26.3421L92.0659 27.3939C92.9565 27.8297 93.2786 27.8202 93.6861 27.8202C95.0031 27.8202 95.7515 27.0243 95.7515 25.6316V17.6728C95.7515 17.5591 95.6568 17.4833 95.5431 17.4833H94.662C94.5483 17.4833 94.4535 17.5686 94.4535 17.6728V25.6411C94.4535 26.2569 93.8093 26.8728 92.7765 26.3516L90.8721 25.2336C90.8057 25.1958 90.7489 25.1294 90.7489 25.0536V16.9811C90.7489 16.9053 90.7962 16.8295 90.8721 16.7916L97.855 12.7648C97.9213 12.7269 97.9972 12.7269 98.0634 12.7648L105.046 16.7916C105.113 16.8295 105.169 16.9053 105.169 16.9811V25.0536C105.169 25.1294 105.132 25.2053 105.065 25.2431L98.0634 29.27C97.9972 29.3078 97.9213 29.3078 97.855 29.27L96.0548 28.1993C95.9979 28.1708 95.9316 28.1708 95.8747 28.1993C95.3821 28.4834 95.2874 28.5119 94.8231 28.673C94.7094 28.7108 94.5293 28.7772 94.8799 28.9667L97.2296 30.35C97.457 30.4827 97.7034 30.5395 97.9592 30.5395C98.2151 30.5395 98.4613 30.4732 98.6887 30.35L105.691 26.3233C106.145 26.058 106.42 25.5652 106.42 25.0442V16.9717C106.42 16.4505 106.145 15.9579 105.691 15.6925L98.6887 11.6468C98.4708 11.5236 98.2151 11.4668 97.9592 11.4668L97.9687 11.4857ZM99.8447 17.2464C97.855 17.2464 96.6611 18.0992 96.6611 19.5014C96.6611 21.0269 97.836 21.4532 99.75 21.6427C102.033 21.8701 102.213 22.2017 102.213 22.6565C102.213 23.4334 101.588 23.7745 100.119 23.7745C98.2719 23.7745 97.8645 23.3102 97.7318 22.3913C97.7129 22.2964 97.6371 22.2112 97.5424 22.2112H96.6328C96.5191 22.2112 96.4242 22.3059 96.4242 22.4196C96.4242 23.5945 97.0686 24.9872 100.119 24.9872C102.337 24.9872 103.616 24.1156 103.616 22.5997C103.616 21.0837 102.583 20.6858 100.432 20.4015C98.2624 20.1078 98.054 19.9751 98.054 19.4635C98.054 19.0466 98.2339 18.4781 99.8352 18.4781C101.275 18.4781 101.806 18.7908 102.024 19.7572C102.043 19.852 102.119 19.9183 102.213 19.9183H103.123C103.18 19.9183 103.237 19.8804 103.275 19.8425C103.312 19.7952 103.341 19.7477 103.331 19.6909C103.189 18.0233 102.081 17.2369 99.8352 17.2369L99.8447 17.2464Z" fill="#868282"/>
<path d="M56.8294 0.911743C56.7536 0.911743 56.6779 0.930695 56.602 0.968594C56.4693 1.04439 56.3841 1.19599 56.3746 1.35706V12.7268C56.3746 12.8405 56.3273 12.9352 56.2231 12.992C56.1282 13.0489 56.0052 13.0489 55.9103 12.992L54.0533 11.9214C53.7785 11.7604 53.4374 11.7604 53.1627 11.9214L45.7533 16.2041C45.4786 16.3651 45.308 16.6683 45.308 16.9905V25.5462C45.308 25.8683 45.4786 26.162 45.7533 26.3231L53.1627 30.6057C53.4374 30.7667 53.7785 30.7667 54.0533 30.6057L61.4626 26.3231C61.7373 26.162 61.9079 25.8683 61.9079 25.5462V4.20896C61.9079 3.88682 61.7279 3.58363 61.4436 3.42256L57.0283 0.959117C56.9621 0.921218 56.8863 0.911743 56.8009 0.911743H56.8294ZM9.13339 11.5993C8.99127 11.5993 8.85861 11.6277 8.73544 11.7035L1.32617 15.9861C1.05141 16.1472 0.880859 16.4409 0.880859 16.7631L0.899813 28.2465C0.899813 28.4075 0.985077 28.5591 1.1272 28.6349C1.26932 28.7203 1.43987 28.7203 1.57251 28.6349L5.9688 26.1052C6.24358 25.9441 6.43308 25.6504 6.43308 25.3283V19.9655C6.43308 19.6434 6.60362 19.3497 6.8784 19.1886L8.7544 18.1085C8.88704 18.0326 9.04812 17.9853 9.19971 17.9853C9.36078 17.9853 9.51239 18.0232 9.64503 18.1085L11.521 19.1886C11.7958 19.3497 11.9663 19.6434 11.9663 19.9655V25.3283C11.9663 25.6504 12.1558 25.9346 12.4306 26.1052L16.8269 28.6349C16.9691 28.7203 17.1396 28.7203 17.2722 28.6349C17.4049 28.5591 17.4996 28.4075 17.4996 28.2465L17.5186 16.7631C17.5186 16.4409 17.348 16.1472 17.0733 15.9861L9.66398 11.7035C9.54081 11.6277 9.40816 11.6088 9.26605 11.5993H9.18076H9.13339ZM75.7505 11.7035C75.5894 11.7035 75.4379 11.7414 75.3052 11.8267L67.896 16.1093C67.6212 16.2703 67.4507 16.5641 67.4507 16.8862V25.442C67.4507 25.7641 67.6306 26.0578 67.9148 26.2189L75.2673 30.4068C75.5421 30.5583 75.8737 30.5773 76.1484 30.4256L80.6016 27.9432C80.7437 27.8675 80.8384 27.7158 80.8384 27.5548C80.8384 27.3937 80.7532 27.2517 80.6111 27.1663L73.1544 22.8837C73.0123 22.8079 72.9176 22.6468 72.9176 22.4858V19.814C72.9176 19.6528 73.0123 19.5107 73.1544 19.4254L75.4757 18.0895C75.6179 18.0137 75.779 18.0137 75.921 18.0895L78.2424 19.4254C78.3846 19.5012 78.4698 19.6528 78.4698 19.814V21.9268C78.4698 22.0878 78.5551 22.23 78.6972 22.3152C78.8393 22.3911 79.0004 22.3911 79.1425 22.3152L83.5861 19.7286C83.861 19.5676 84.0315 19.2738 84.0315 18.9517V16.8862C84.0315 16.5641 83.861 16.2703 83.5861 16.1093L76.2148 11.8267C76.0822 11.7509 75.921 11.7035 75.7695 11.7035H75.7505ZM53.5796 18.0895C53.5796 18.0895 53.6648 18.099 53.7027 18.118L56.2419 19.5866C56.3083 19.6244 56.3651 19.7003 56.3651 19.776V22.7132C56.3651 22.789 56.3178 22.8647 56.2419 22.9027L53.7027 24.3713C53.6365 24.4092 53.5511 24.4092 53.4753 24.3713L50.936 22.9027C50.8698 22.8647 50.813 22.789 50.813 22.7132V19.7665C50.813 19.6908 50.8603 19.6149 50.936 19.5771L53.4753 18.1085C53.4753 18.1085 53.5416 18.08 53.5796 18.08V18.0895Z" fill="#868282"/>
<path d="M31.4088 11.656C31.2476 11.656 31.0961 11.6939 30.9635 11.7792L23.5542 16.0428C23.2794 16.2038 23.1089 16.5071 23.1089 16.8292V25.385C23.1089 25.7071 23.2794 26.0009 23.5542 26.1619L30.9635 30.4445C31.2383 30.6055 31.5794 30.6055 31.8541 30.4445L39.2633 26.1619C39.5381 26.0009 39.7086 25.7071 39.7086 25.385V16.8292C39.7086 16.5071 39.5381 16.2038 39.2633 16.0428L31.8541 11.7792C31.7214 11.7034 31.5604 11.656 31.4088 11.656ZM75.7413 19.2927C75.7413 19.2927 75.6749 19.2927 75.6559 19.3116L74.2252 20.1455C74.1684 20.1738 74.14 20.2307 74.14 20.297V21.9362C74.14 21.993 74.1779 22.0499 74.2252 22.0877L75.6559 22.9026C75.7033 22.931 75.7697 22.931 75.817 22.9026L77.2477 22.0877C77.3046 22.0594 77.333 22.0025 77.333 21.9362V20.297C77.333 20.2402 77.2951 20.1833 77.2477 20.1455L75.817 19.3116C75.817 19.3116 75.7697 19.2927 75.7413 19.2927Z" fill="#868282"/>
</g>
<defs>
<clipPath id="clip0_123_172">
<rect width="106.203" height="31.2361" fill="white" transform="translate(0.880859 0.245117)"/>
</clipPath>
</defs>
</svg>
