<svg width="44" height="52" viewBox="0 0 44 52" fill="none" xmlns="http://www.w3.org/2000/svg">
<g clip-path="url(#clip0_123_192)">
<path fill-rule="evenodd" clip-rule="evenodd" d="M39.5399 40.8669L16.5014 47.6736C15.8017 47.8844 15.1282 47.2784 15.2682 46.5582L23.4986 7.21055C23.6561 6.47277 24.6707 6.35859 24.9943 7.04367L40.2308 39.3475C40.5194 39.9534 40.1958 40.6736 39.5399 40.8669ZM43.4933 39.2684L25.8427 1.86172C25.3967 0.921941 24.4696 0.307133 23.4287 0.254435C22.3529 0.192955 21.3907 0.71115 20.8484 1.58945L1.71102 32.5319C1.11626 33.4892 1.12502 34.6924 1.74602 35.641L11.0961 50.1065C11.6558 50.9673 12.618 51.4767 13.6238 51.4767C13.9037 51.4767 14.1923 51.4416 14.4723 51.3537L41.6303 43.3349C42.4524 43.0889 43.1346 42.5004 43.4933 41.7188C43.8432 40.9371 43.8432 40.0413 43.4757 39.2771L43.4933 39.2684Z" fill="#868282"/>
</g>
<defs>
<clipPath id="clip0_123_192">
<rect width="43.7305" height="51.2272" fill="white" transform="translate(0.269531 0.249512)"/>
</clipPath>
</defs>
</svg>
