<svg width="131" height="21" viewBox="0 0 131 21" fill="none" xmlns="http://www.w3.org/2000/svg">
<g clip-path="url(#clip0_123_189)">
<path d="M8.24977 8.2594H1.9428V1.85786H8.59317C11.0221 1.85786 12.245 2.94029 12.245 5.10515C12.245 7.27001 10.9133 8.2594 8.24977 8.2594ZM12.7811 1.78175C11.9184 1.00375 10.7039 0.606297 9.15434 0.606297L0.125244 0.657035V15.9717H1.9428L1.92604 9.45177H8.64343C10.327 9.45177 11.6587 9.06277 12.6219 8.27632C13.5851 7.48987 14.0709 6.40744 14.0709 5.02057C14.0709 3.63371 13.6353 2.55128 12.7727 1.76483L12.7811 1.78175ZM24.5575 12.7667C24.3732 13.2825 24.0884 13.7138 23.6947 14.069C22.8822 14.8724 21.6343 15.2699 19.9675 15.2699C18.4598 15.2699 17.2956 14.8808 16.4916 14.1029C15.6874 13.3248 15.2771 12.2762 15.2771 10.9739C15.2771 10.2889 15.3859 9.68854 15.5953 9.16424C15.8048 8.63993 16.1146 8.19176 16.5167 7.82813C17.3543 7.05859 18.5017 6.66959 19.9675 6.66959C23.2173 6.66959 24.8422 8.10718 24.8422 10.9739C24.8422 11.6589 24.7501 12.2593 24.5658 12.7752M24.8925 7.12624C23.7868 6.103 22.1452 5.59563 19.9675 5.59563C17.9154 5.59563 16.324 6.11992 15.21 7.16005C14.1966 8.10718 13.6941 9.37565 13.6941 10.9824C13.6941 12.5891 14.2133 13.8576 15.2602 14.8385C15.8382 15.3628 16.5083 15.7434 17.2705 15.9802C18.0326 16.2169 18.9372 16.3354 19.9675 16.3354C22.1284 16.3354 23.7784 15.828 24.9092 14.8217C25.9227 13.8998 26.4253 12.6229 26.4253 10.9824C26.4253 9.34183 25.9144 8.048 24.8925 7.12624ZM38.6539 13.2149C38.6539 15.2782 36.828 16.31 33.1678 16.31C32.0454 16.31 31.1073 16.2423 30.3451 16.0901C29.5829 15.9379 28.9548 15.7095 28.4774 15.3798C28.1088 15.126 27.8156 14.7963 27.5979 14.3904C27.3801 13.9844 27.2377 13.477 27.1707 12.8597L28.8709 12.8428C28.8709 13.6546 29.1725 14.2551 29.7672 14.6356C30.4037 15.1007 31.5429 15.3289 33.1678 15.3289C35.7224 15.3289 37.0038 14.6864 37.0038 13.3841C37.0038 12.6314 36.5767 12.1071 35.714 11.8196C35.5381 11.7688 34.5079 11.6166 32.615 11.3798C30.722 11.1431 29.541 10.9316 29.072 10.7456C28.0585 10.3397 27.556 9.61245 27.556 8.55538C27.556 7.49833 28.0083 6.75416 28.9129 6.25522C29.3567 6.04381 29.918 5.88314 30.588 5.7732C31.2581 5.66327 32.0286 5.60407 32.9081 5.60407C36.4343 5.60407 38.1933 6.72031 38.1933 8.95283H36.5767C36.5767 7.38838 35.337 6.60193 32.8663 6.60193C31.6098 6.60193 30.6717 6.75416 30.0519 7.0755C29.4322 7.39685 29.1222 7.87886 29.1222 8.54692C29.1222 9.16424 29.541 9.61244 30.3786 9.88304C30.8644 10.0268 31.9952 10.1875 33.754 10.3735C35.3287 10.5173 36.4092 10.7202 36.9954 10.9824C38.1178 11.4221 38.6707 12.1663 38.6707 13.2234L38.6539 13.2149ZM45.3378 16.0055L44.6426 16.107L44.2071 16.1408C43.1015 16.1408 42.2973 15.9802 41.8115 15.6503C41.3257 15.3206 41.0745 14.754 41.0745 13.9422V6.95709H39.0559V5.92542H41.0577L41.0745 2.61894H42.624V5.92542H45.3293V6.97401L42.624 6.95709V13.7562C42.624 14.2635 42.758 14.6103 43.0261 14.8047C43.2941 14.9992 43.7715 15.0922 44.45 15.0922C44.5504 15.1007 44.6594 15.0922 44.7766 15.0838C44.8939 15.0753 45.0781 15.0246 45.3126 14.9569L45.3293 16.0055H45.3378ZM56.0756 13.6884C55.6484 14.0352 55.171 14.3058 54.6266 14.4918C54.0821 14.6779 53.4623 14.7708 52.7504 14.7708C49.5006 14.7708 47.8841 13.4178 47.8841 10.7118C47.8841 9.45176 48.3028 8.46235 49.132 7.75202C49.9613 7.04167 51.1339 6.6865 52.6415 6.6865C54.1492 6.6865 55.3134 7.04167 56.1007 7.76047C56.8879 8.47928 57.2816 9.4433 57.2816 10.6441C57.2816 11.9549 56.8796 12.9696 56.0756 13.6884ZM58.8312 5.93388H57.2816L57.2649 7.65898C56.5781 6.95711 56.0923 6.51737 55.7992 6.33132C54.9364 5.84931 53.8057 5.60407 52.4237 5.60407C50.4051 5.60407 48.864 6.06918 47.7919 6.99939C46.7784 7.85348 46.2759 9.09659 46.2759 10.7118C46.2759 11.5151 46.4015 12.2255 46.6611 12.8597C46.9208 13.494 47.2893 14.0267 47.7751 14.4665C48.8389 15.3628 50.3465 15.811 52.2981 15.811C54.6349 15.811 56.2933 15.1684 57.2733 13.8745V15.6673C57.2733 16.8089 56.9215 17.6884 56.2096 18.3141C55.4976 18.94 54.325 19.2528 52.7001 19.2528C51.1674 19.2528 50.0785 19.0414 49.4251 18.6101C48.9394 18.2803 48.596 17.7138 48.4117 16.9104H46.8119C46.9879 18.0351 47.4653 18.8554 48.2274 19.3628C49.1153 19.9463 50.6229 20.2338 52.742 20.2338C56.7959 20.2338 58.8228 18.7116 58.8228 15.6673V5.92542L58.8312 5.93388ZM67.2237 6.94865C66.763 6.87254 66.3191 6.83026 65.9255 6.83026C63.3709 6.83026 62.0977 8.24248 62.0977 11.0669V15.9802H60.5649L60.5482 5.92542L62.0977 5.94232V7.73511H62.1814C62.4412 7.02476 62.8515 6.492 63.4212 6.12836C64.0409 5.7732 64.9622 5.59563 66.1935 5.59563H67.2321V6.94019L67.2237 6.94865ZM68.6643 10.3228C68.857 9.18117 69.3009 8.29324 69.9793 7.66745C70.4233 7.30383 70.9258 7.03321 71.4954 6.85563C72.0649 6.67804 72.6931 6.58502 73.4051 6.58502C74.7871 6.58502 75.9095 6.96555 76.7804 7.72664C77.6516 8.48772 78.0955 9.35875 78.0955 10.3228H68.6643ZM78.2463 7.21926C77.7018 6.66959 77.0318 6.26368 76.2277 6.00153C75.4237 5.73938 74.4856 5.60407 73.4051 5.60407C71.3948 5.60407 69.837 6.07764 68.723 7.01631C67.609 7.95497 67.0562 9.24035 67.0562 10.8724C67.0562 12.5045 67.5923 13.7899 68.6559 14.7371C69.8034 15.7941 71.4283 16.3184 73.5306 16.3184C74.3683 16.3184 75.1388 16.2254 75.8507 16.0309C76.5628 15.8363 77.1825 15.5658 77.7187 15.2191C78.6567 14.5426 79.243 13.7054 79.4942 12.7075H77.8191C77.2412 14.4241 75.8089 15.2867 73.5223 15.2867C71.9057 15.2867 70.6578 14.8639 69.7951 14.0267C69.0496 13.3078 68.6727 12.3692 68.6727 11.2276H79.7371C79.7371 9.51941 79.243 8.1833 78.2547 7.21926H78.2463ZM96.1286 11.8703C96.1286 14.8554 93.7415 16.3437 88.9756 16.3437C86.1195 16.3437 84.034 15.828 82.7189 14.8047C81.6469 13.9591 81.1024 12.6737 81.1024 10.9401H83.0204C83.0204 13.7223 84.9972 15.1175 88.9673 15.1175C90.8685 15.1175 92.2422 14.83 93.0882 14.2635C93.8085 13.7562 94.1603 12.9696 94.1603 11.8957C94.1603 10.8217 93.6745 10.086 92.6945 9.66318C92.1417 9.43485 90.7848 9.13888 88.6323 8.79216C85.9269 8.3778 84.1679 7.96342 83.3639 7.5406C82.1996 6.92327 81.6217 5.88312 81.6217 4.42016C81.6217 3.05021 82.1159 2.02698 83.1043 1.35892C84.1679 0.631666 85.9938 0.268044 88.5821 0.268044C93.2557 0.268044 95.5926 1.83249 95.5926 4.96984H93.6578C93.6578 2.61894 91.9239 1.45194 88.4564 1.45194C86.7141 1.45194 85.4411 1.68872 84.6369 2.16228C83.8748 2.66967 83.4979 3.40539 83.4979 4.38634C83.4979 5.36729 83.9837 6.12838 84.9637 6.54274C85.4829 6.78798 87.0158 7.11779 89.562 7.54907C91.9491 7.91269 93.5656 8.33552 94.4032 8.81753C95.5507 9.40949 96.1118 10.4327 96.1118 11.8957L96.1286 11.8703ZM111.716 13.3924C110.996 13.9759 110.192 14.4072 109.287 14.6947C108.382 14.9824 107.369 15.126 106.255 15.126C103.968 15.126 102.126 14.5003 100.719 13.2656C99.3114 12.031 98.6078 10.3651 98.6078 8.30168C98.6078 6.23832 99.303 4.46244 100.702 3.26163C102.101 2.06082 103.952 1.45194 106.255 1.45194C108.558 1.45194 110.434 2.07772 111.766 3.33773C112.47 3.95506 112.997 4.6654 113.333 5.49413C113.667 6.32287 113.835 7.25309 113.835 8.30168C113.835 10.4496 113.131 12.1494 111.716 13.3924ZM112.738 14.4072C113.734 13.6969 114.48 12.8343 114.957 11.8111C115.435 10.7879 115.678 9.62935 115.678 8.30168C115.678 5.92542 114.899 4.01426 113.324 2.57666C112.487 1.7902 111.473 1.19825 110.292 0.817709C109.111 0.437168 107.754 0.242676 106.23 0.242676C103.273 0.242676 100.953 0.969925 99.2695 2.41598C97.5859 3.86204 96.74 5.82394 96.74 8.30168C96.74 10.7794 97.5859 12.6568 99.2863 14.1366C100.987 15.6166 103.307 16.3522 106.255 16.3522C107.402 16.3522 108.407 16.2762 109.27 16.1155C110.133 15.9548 110.853 15.718 111.456 15.3882L114.296 17.3754L115.477 16.2762L112.729 14.3987L112.738 14.4072ZM130.051 15.9802H116.934V0.640131L118.735 0.606297V14.6947H130.067L130.051 15.9717V15.9802Z" fill="#868282"/>
</g>
<defs>
<clipPath id="clip0_123_189">
<rect width="129.942" height="19.9911" fill="white" transform="translate(0.125244 0.242676)"/>
</clipPath>
</defs>
</svg>
