<svg width="56" height="50" viewBox="0 0 56 50" fill="none" xmlns="http://www.w3.org/2000/svg">
<g clip-path="url(#clip0_123_183)">
<path d="M27.7337 21.2855C29.5243 21.2855 30.9829 22.7441 30.9829 24.5346C30.9829 26.3252 29.5243 27.775 27.7337 27.775C25.9433 27.775 24.4934 26.3164 24.4934 24.5346C24.4934 22.7529 25.952 21.2855 27.7337 21.2855ZM27.7337 19.5387C24.9737 19.5387 22.7466 21.7747 22.7466 24.5346C22.7466 27.2946 24.9825 29.5219 27.7337 29.5219C30.485 29.5219 32.7296 27.2859 32.7296 24.5346C32.7296 21.7834 30.4938 19.5387 27.7337 19.5387Z" fill="#868282"/>
<path d="M27.734 16.1323C34.0837 16.1323 40.1365 17.0146 44.783 18.6129C50.006 20.4121 52.7399 22.9537 52.7399 24.5346C52.7399 26.2465 49.7964 28.9454 44.1803 30.8057C39.8482 32.2382 34.0051 33.0329 27.734 33.0329C21.1397 33.0329 15.183 32.2382 10.9556 30.7971C5.61035 28.9716 2.7281 26.2029 2.7281 24.5346C2.7281 23.0062 5.14746 20.5081 10.4491 18.6566C15.0607 17.0494 21.358 16.1323 27.734 16.1323ZM27.734 14.3855C20.965 14.3855 14.589 15.3638 9.87263 17.0146C4.30024 18.9622 0.972534 21.8882 0.972534 24.5346C0.972534 27.181 4.50986 30.4388 10.3879 32.4477C15.0346 34.0374 21.2095 34.7798 27.734 34.7798C34.2584 34.7798 40.1365 33.985 44.7306 32.4652C50.8009 30.4563 54.4866 27.3209 54.4866 24.5346C54.4866 21.7485 51.0104 18.9099 45.3507 16.9621C40.6605 15.3463 34.433 14.3855 27.7253 14.3855H27.734Z" fill="#868282"/>
<path d="M39.0971 2.65559C39.5425 2.65559 39.9093 2.73419 40.1801 2.89141C41.6562 3.74735 42.5297 7.64278 41.3418 13.4423C40.4247 17.9142 38.1887 23.3642 35.0532 28.8056C31.7605 34.5178 28.0921 39.2866 24.7295 42.2212C21.6725 44.8939 18.5631 46.4835 16.3883 46.4835C15.8905 46.4835 15.4887 46.3962 15.1917 46.2215C13.8205 45.4354 12.9646 41.8719 13.9603 36.5965C14.8686 31.8015 17.2181 25.8884 20.406 20.3597C23.5765 14.8571 27.3672 10.0534 31.0791 6.8305C34.0837 4.219 37.0795 2.65559 39.0971 2.65559ZM39.0971 0.908761C36.6865 0.908761 33.3762 2.51584 29.935 5.51165C26.1881 8.76949 22.249 13.6868 18.8951 19.4863C15.515 25.3468 13.1829 31.3647 12.2483 36.2646C11.1479 42.064 12.0213 46.405 14.3184 47.7325C14.8947 48.0643 15.5935 48.2304 16.3883 48.2304C18.8863 48.2304 22.3363 46.632 25.8736 43.5314C29.5682 40.2997 33.2977 35.3213 36.5555 29.6703C39.7347 24.159 42.0667 18.5255 43.0362 13.7916C44.3289 7.52924 43.4554 2.76914 41.0361 1.37167C40.4858 1.05724 39.8307 0.900024 39.0796 0.900024L39.0971 0.908761Z" fill="#868282"/>
<path d="M16.3186 2.70793C18.4934 2.70793 21.6988 4.39363 24.8868 7.23223C28.3018 10.263 31.909 14.9182 35.0533 20.3509C38.3548 26.0543 40.6519 31.6093 41.5252 35.9937C42.6258 41.54 41.6738 45.4179 40.2326 46.2564C39.9445 46.4223 39.5601 46.5096 39.0885 46.5096C37.1058 46.5096 34.1799 45.0162 31.2714 42.5182C27.5768 39.339 23.6204 34.3431 20.4237 28.823C17.2443 23.338 14.9735 17.652 14.0303 12.8221C12.9734 7.39818 13.8031 3.76478 15.1656 2.96997C15.4539 2.80402 15.8469 2.71668 16.3186 2.71668M16.3186 0.969849C15.5412 0.969849 14.8513 1.12706 14.2923 1.45896C11.9777 2.79528 11.1654 7.28463 12.3183 13.154C13.2703 18.0276 15.5587 23.897 18.9126 29.6964C22.3014 35.557 26.3541 40.5791 30.136 43.8369C33.5073 46.7455 36.7303 48.2565 39.0885 48.2565C39.8571 48.2565 40.5383 48.0993 41.1061 47.7673C43.473 46.3961 44.4424 41.7408 43.2372 35.6531C42.2852 30.8406 39.8309 25.1198 36.5643 19.4774C33.3764 13.975 29.6643 9.13627 26.0484 5.93084C22.3888 2.68175 18.8602 0.969849 16.3272 0.969849H16.3186Z" fill="#868282"/>
</g>
<defs>
<clipPath id="clip0_123_183">
<rect width="54.9755" height="48.7283" fill="white" transform="translate(0.361816 0.499023)"/>
</clipPath>
</defs>
</svg>
