<svg width="47" height="46" viewBox="0 0 47 46" fill="none" xmlns="http://www.w3.org/2000/svg">
<g clip-path="url(#clip0_123_155)">
<path d="M1.50232 23.2384V45.8576H46.3984V0.619141H1.50232V23.2384ZM37.6858 21.4359C38.8222 21.7258 39.6991 22.2347 40.4918 23.0687C40.9057 23.5141 41.5159 24.327 41.5651 24.5177C41.5792 24.5743 39.6289 25.8961 38.4434 26.6383C38.4013 26.6666 38.2259 26.4828 38.0365 26.1929C37.4613 25.3448 36.851 24.9773 35.925 24.9136C34.5641 24.8217 33.6802 25.5356 33.6943 26.7373C33.6943 27.0907 33.7433 27.2958 33.8836 27.5855C34.1853 28.2076 34.7395 28.5822 36.4862 29.3456C39.6991 30.738 41.0741 31.657 41.9298 32.9646C42.8839 34.4207 43.1014 36.7463 42.449 38.4781C41.7334 40.3582 39.9726 41.6377 37.4824 42.0618C36.7107 42.1962 34.8868 42.1749 34.0591 42.0265C32.2561 41.7013 30.5444 40.8036 29.4923 39.6303C29.0783 39.1708 28.2716 37.9691 28.3207 37.8843C28.3418 37.856 28.5241 37.7429 28.7346 37.6157L30.4041 36.6473L31.6949 35.8911L31.9685 36.2939C32.3474 36.8735 33.1751 37.6723 33.6732 37.9409C35.1043 38.7043 37.0755 38.5912 38.0436 37.7217C38.4574 37.3401 38.6257 36.9442 38.6257 36.3646C38.6257 35.8415 38.5626 35.6082 38.289 35.2195C37.9383 34.7176 37.2298 34.2935 35.2024 33.41C32.8875 32.4062 31.8913 31.7771 30.9794 30.7875C30.4533 30.215 29.9552 29.296 29.7448 28.5256C29.5764 27.8895 29.5273 26.2849 29.6676 25.6417C30.1446 23.3797 31.8352 21.8106 34.2694 21.344C35.0621 21.1956 36.9001 21.2521 37.6788 21.4429L37.6858 21.4359ZM27.1422 23.3232L27.1563 25.1752H21.3127V41.9063H17.1809V25.1752H11.3374V23.3585L11.3865 21.4924C11.3865 21.4924 14.9641 21.4501 19.2784 21.4571L27.1211 21.4783L27.1422 23.3232Z" fill="#868282"/>
</g>
<defs>
<clipPath id="clip0_123_155">
<rect width="46.1432" height="45.2384" fill="white" transform="translate(0.501221 0.619141)"/>
</clipPath>
</defs>
</svg>
